<?xml version="1.0" standalone="no"?>
<!DOCTYPE svg PUBLIC "-//W3C//DTD SVG 20010904//EN"
 "http://www.w3.org/TR/2001/REC-SVG-20010904/DTD/svg10.dtd">
<svg version="1.0" xmlns="http://www.w3.org/2000/svg"
 width="700.000000pt" height="700.000000pt" viewBox="0 0 700.000000 700.000000"
 preserveAspectRatio="xMidYMid meet">
<metadata>
Created by potrace 1.11, written by Peter Selinger 2001-2013
</metadata>
<g transform="translate(0.000000,700.000000) scale(0.100000,-0.100000)"
fill="#000000" stroke="none">
<path d="M526 4704 c-97 -19 -167 -55 -202 -105 -104 -151 28 -425 411 -849
71 -79 387 -392 505 -500 62 -58 121 -112 130 -120 8 -8 47 -42 85 -75 39 -33
72 -63 75 -66 5 -6 118 -103 216 -186 688 -579 1252 -927 1658 -1023 514 -122
857 71 1093 615 22 51 82 218 88 245 2 8 19 71 38 140 20 69 50 184 67 255
124 518 174 680 270 880 118 244 263 384 455 440 61 18 265 26 330 13 17 -3
48 -9 70 -13 198 -35 496 -160 800 -337 141 -81 127 -73 272 -165 l113 -73 0
34 c0 29 -10 42 -92 113 -468 404 -934 658 -1303 710 -67 10 -217 10 -284 0
-86 -12 -200 -55 -281 -105 -222 -138 -393 -420 -525 -865 -25 -83 -50 -165
-55 -182 -5 -16 -32 -120 -60 -230 -117 -456 -192 -699 -250 -815 -107 -211
-247 -335 -405 -357 -364 -51 -903 240 -1735 936 -102 86 -203 171 -224 191
-22 19 -65 57 -95 85 -126 112 -372 366 -439 453 -123 160 -170 286 -133 355
17 32 69 64 125 77 48 11 228 14 276 6 14 -3 72 -12 130 -21 234 -35 420 -80
800 -191 63 -19 133 -40 155 -48 22 -8 74 -24 115 -36 41 -12 82 -24 90 -27 8
-3 130 -45 270 -93 265 -91 743 -266 1029 -376 91 -35 168 -61 172 -56 5 6 78
275 83 306 1 8 -105 54 -219 95 -27 10 -117 44 -200 76 -164 62 -337 126 -660
242 -254 91 -950 323 -970 323 -8 0 -29 6 -47 14 -29 13 -94 32 -363 107 -119
33 -430 111 -495 124 -55 11 -90 18 -110 21 -14 3 -41 9 -60 14 -19 5 -57 12
-85 16 -27 3 -59 7 -70 9 -11 2 -40 6 -65 9 -25 4 -61 9 -80 12 -83 12 -347
11 -414 -2z"/>
<path d="M4874 3271 l-41 -159 101 -42 c56 -23 110 -46 121 -51 11 -5 117 -49
235 -98 414 -171 782 -328 1010 -429 112 -50 132 -56 192 -56 61 0 71 3 99 30
60 57 70 112 35 190 -28 61 -73 95 -190 143 -44 18 -87 37 -95 42 -9 5 -65 30
-126 55 -60 25 -125 52 -142 60 -18 8 -48 20 -65 28 -18 7 -60 25 -93 39 -33
14 -121 51 -195 82 -124 53 -172 73 -225 96 -11 4 -99 40 -195 79 -96 39 -185
75 -197 80 -13 6 -33 14 -45 19 -13 5 -45 19 -72 30 -27 12 -54 21 -60 21 -6
0 -29 -72 -52 -159z"/>
</g>
</svg>
