<svg viewBox="0 0 122 52" xmlns="http://www.w3.org/2000/svg">
  <defs>
    <linearGradient id="g0" x1="0%" y1="0%" x2="0%" y2="100%">
      <stop offset="0%" stop-color="#0ebaa1"/>
      <stop offset="100%" stop-color="#076f61"/>
    </linearGradient>
    <!-- dark mode : couleurs inversées pour contraste sur fond sombre -->
    <style>
      @media (prefers-color-scheme: dark) {
        #p1, #p2 { fill: url(#g1); }
      }
    </style>
    <linearGradient id="g1" x1="0%" y1="0%" x2="0%" y2="100%">
      <stop offset="0%" stop-color="#47d6c0"/>
      <stop offset="100%" stop-color="#0ebaa1"/>
    </linearGradient>
  </defs>
  <path id="p1" d="M68.325 37.236c0 0-.437 1.935-1.946 4.144c-.419.699-.868 1.333-1.354 1.895c-.795.919-1.728 1.645-2.829 2.127c-3.937 2.449-10.268 3.67-20.324.198c14.389 8.792 22.388 7.478 27.564 1.491c8.014-9.263 6.976-26.65 13.985-36.453c4.952-6.927 14.732-7.822 37.728 8.621C109.559 7.301 88.966-7.148 78.668 7.254C74.73 12.759 73.178 20 71.44 26.471C70.481 30.282 69.531 34.044 68.325 37.236z" fill="url(#g0)"/>
  <path id="p2" d="M27.21 27.262c-34.758-30.065 7.576-16.556 42.427-2.996l1.479-5.681C26.818 1.359-34-17.969 23.394 31.673c7.142 6.178 13.245 10.725 18.504 13.935c10.041 3.46 16.365 2.24 20.299-.207c.017-.007.031-.017.048-.024C56.661 47.873 46.643 44.071 27.21 27.262zM108.642 34.107c-.128-.056-12.053-5.342-27.951-11.733l-1.451 5.7c15.124 6.101 26.936 11.333 27.048 11.383C110.894 41.421 112.542 35.995 108.642 34.107z" fill="url(#g0)"/>
</svg>
